PathFileType	4	(X/Y/Z)	/Users/itak/Documents/Research/Walk-IL/dataset/trc/00445_00167.trc
DataRate	CameraRate	NumFrames	NumMarkers	Units	OrigDataRate	OrigDataStartFrame	OrigNumFrames
100.000000	100.000000	4	54	mm	100.000000	313	501
Frame#	Time	RPSI			L3			STRN			T10			C7			CLAV			RBAK			LBAK			LSHO			LUPA			LAEL			LAOL			LWTS			LWPS			LFRA			LIFD			LHPS			LHTS			RSHO			RUPA			RAEL			RAOL			RWTS			RWPS			RFRA			RIFD			RHTS			RHPS			RBHD			LFHD			RFHD			LBHD			LHIP			RHIP			RASI			LASI			LKNE			LTHI			LANK			LTIP			LTOE			LMT1			LMT5			LHEE			RKNE			RTHI			RANK			RTIP			RTOE			RMT1			RMT5			RHEE			LPSI			*53			
		X1	Y1	Z1	X2	Y2	Z2	X3	Y3	Z3	X4	Y4	Z4	X5	Y5	Z5	X6	Y6	Z6	X7	Y7	Z7	X8	Y8	Z8	X9	Y9	Z9	X10	Y10	Z10	X11	Y11	Z11	X12	Y12	Z12	X13	Y13	Z13	X14	Y14	Z14	X15	Y15	Z15	X16	Y16	Z16	X17	Y17	Z17	X18	Y18	Z18	X19	Y19	Z19	X20	Y20	Z20	X21	Y21	Z21	X22	Y22	Z22	X23	Y23	Z23	X24	Y24	Z24	X25	Y25	Z25	X26	Y26	Z26	X27	Y27	Z27	X28	Y28	Z28	X29	Y29	Z29	X30	Y30	Z30	X31	Y31	Z31	X32	Y32	Z32	X33	Y33	Z33	X34	Y34	Z34	X35	Y35	Z35	X36	Y36	Z36	X37	Y37	Z37	X38	Y38	Z38	X39	Y39	Z39	X40	Y40	Z40	X41	Y41	Z41	X42	Y42	Z42	X43	Y43	Z43	X44	Y44	Z44	X45	Y45	Z45	X46	Y46	Z46	X47	Y47	Z47	X48	Y48	Z48	X49	Y49	Z49	X50	Y50	Z50	X51	Y51	Z51	X52	Y52	Z52	X53	Y53	Z53	X54	Y54	Z54	

314	3.13	617.1873779296875	990.2684936523438	745.9368286132812	653.5621948242188	1079.388061523438	719.9783935546875	882.4186401367188	1293.593627929688	849.2193603515625	634.68408203125	1199.947265625	712.8095092773438	658.6705932617188	1464.264038085938	751.0170288085938	841.2803955078125	1401.065795898438	816.779052734375	569.7183227539062	1342.826416015625	804.716796875	671.5390014648438	1420.869995117188	667.9890747070312	788.2855224609375	1462.117553710938	631.0140991210938	773.7721557617188	1408.128173828125	509.0532836914062	704.0180053710938	1230.82080078125	403.555908203125	618.4893188476562	1236.857177734375	462.6344909667969	706.1505737304688	1008.500915527344	409.69384765625	663.4826049804688	1010.08740234375	348.2228698730469	697.2156982421875	1144.29833984375	372.8377075195312	641.3766479492188	853.030029296875	430.0821838378906	636.2310791015625	924.5158081054688	355.4793701171875	688.5604248046875	916.906005859375	405.3846740722656	647.7125244140625	1445.205932617188	911.2896728515625	597.4146728515625	1393.474487304688	975.1514282226562	609.9513549804688	1135.797241210938	1064.975341796875	583.4093627929688	1081.476684570312	1029.536865234375	823.6640625	1141.34033203125	981.4465942382812	820.47021484375	1076.237426757812	1040.24853515625	664.3770751953125	1110.616088867188	1063.6953125	970.7810668945312	1083.241333007812	962.458984375	922.8450927734375	1118.592529296875	979.6116943359375	907.2716064453125	1059.467895507812	1024.896728515625	678.656005859375	1663.052368164062	829.8071899414062	870.2737426757812	1681.14794921875	755.4379272460938	806.994140625	1696.883666992188	868.6578369140625	750.7996826171875	1643.867919921875	667.892578125	890.5059204101562	871.6954345703125	666.7850952148438	591.4685668945312	897.4794921875	929.5785522460938	714.0968017578125	932.9044799804688	952.638427734375	901.4988403320312	925.461669921875	783.328369140625	1057.929077148438	509.204833984375	801.0020141601562	1016.94580078125	647.7566528320312	752.465087890625	1188.7529296875	104.0387496948242	891.928466796875	1128.831298828125	378.9703369140625	821.7444458007812	1328.834716796875	159.7984771728516	1053.446899414062	1258.47998046875	155.8553619384766	1046.422607421875	1315.62255859375	104.4007568359375	966.0040893554688	1117.213989257812	119.0400085449219	902.5791625976562	577.0210571289062	500.3217468261719	915.472900390625	606.2855224609375	758.55712890625	961.9271240234375	318.9558410644531	205.7737579345703	703.5361328125	491.0070495605469	388.5491027832031	864.38330078125	467.8611450195312	69.90475463867188	785.8042602539062	459.3820495605469	108.7309341430664	724.2879638671875	374.1268310546875	120.3503570556641	786.50634765625	313.2596740722656	245.1663360595703	632.9967041015625	712.3934936523438	969.0550537109375	648.4307861328125	nan	nan	nan	
315	3.14	639.0119018554688	983.8255615234375	755.2368774414062	674.9247436523438	1072.901245117188	729.2367553710938	902.1732177734375	1288.40478515625	859.7074584960938	656.6627197265625	1193.988037109375	721.5121459960938	678.8905639648438	1459.1181640625	759.4630737304688	861.34375	1395.81689453125	826.703125	590.4035034179688	1337.681274414062	812.3463134765625	691.9203491210938	1415.126953125	677.1390380859375	808.3543701171875	1456.868896484375	640.628173828125	793.7256469726562	1403.595825195312	518.7510986328125	725.3134765625	1227.04443359375	411.8585510253906	639.3390502929688	1232.476440429688	470.3894958496094	729.0269775390625	1004.481384277344	418.781494140625	687.2854614257812	1005.512084960938	356.6517639160156	719.5509033203125	1140.4052734375	381.2296447753906	661.3346557617188	850.2105102539062	441.7508544921875	658.79150390625	919.9745483398438	365.0422668457031	710.250732421875	912.5029907226562	415.8878173828125	667.0233154296875	1441.028076171875	919.259765625	615.1362915039062	1390.083129882812	982.2935180664062	623.9271850585938	1133.828125	1075.25830078125	597.8947143554688	1079.3681640625	1039.714721679688	838.1615600585938	1140.758544921875	993.2881469726562	835.212646484375	1075.493408203125	1052.003295898438	678.5559692382812	1108.881713867188	1074.177856445312	986.0594482421875	1084.53466796875	974.8829956054688	937.6353759765625	1119.362182617188	992.32763671875	922.3846435546875	1059.700561523438	1037.229248046875	697.3607788085938	1657.957885742188	836.98876953125	888.90625	1676.711303710938	762.5164794921875	825.5759887695312	1692.881591796875	875.6771850585938	769.6199951171875	1638.122924804688	675.2821655273438	913.0726928710938	864.1704711914062	680.0586547851562	611.0092163085938	894.191650390625	939.8920288085938	733.6704711914062	929.2022705078125	963.6762084960938	923.4144897460938	919.3397827148438	796.6031494140625	1080.695068359375	504.53662109375	815.4913940429688	1039.595336914062	641.6658935546875	767.3790893554688	1212.070434570312	101.426383972168	905.5503540039062	1151.89990234375	375.4989013671875	836.3582763671875	1348.491333007812	152.1534881591797	1071.247314453125	1278.280639648438	150.2130889892578	1062.112670898438	1336.962036132812	98.70998382568359	982.6011352539062	1140.3857421875	117.1387557983398	914.8275756835938	593.6242065429688	497.87890625	928.15283203125	624.6670532226562	755.8683471679688	973.3178100585938	335.0174255371094	204.6124114990234	712.9791259765625	506.8918762207031	387.2479858398438	876.0458374023438	483.6773986816406	70.08376312255859	796.8338623046875	475.488525390625	108.365234375	735.3391723632812	389.4133605957031	119.2679748535156	796.501953125	330.5394592285156	243.9258117675781	642.3119506835938	735.135009765625	960.9178466796875	658.9110717773438	nan	nan	nan	
316	3.15	660.853759765625	976.1138305664062	764.3975219726562	696.1710205078125	1065.272827148438	738.5077514648438	921.8114013671875	1282.175048828125	870.10546875	678.5702514648438	1186.952758789062	730.2180786132812	699.0738525390625	1452.950561523438	768.1348876953125	881.27490234375	1389.55029296875	836.659912109375	611.1030883789062	1331.501708984375	820.0970458984375	712.3173217773438	1408.359741210938	686.2450561523438	828.4637451171875	1450.543701171875	650.1926879882812	814.0612182617188	1397.72900390625	528.3208618164062	747.3145141601562	1221.824584960938	420.0187377929688	660.8087158203125	1226.53466796875	477.895263671875	752.9025268554688	999.032958984375	427.5506896972656	711.9659423828125	999.5712280273438	364.8668212890625	742.7160034179688	1135.07177734375	389.4669494628906	682.703125	845.7044067382812	452.3216857910156	682.4036254882812	914.1266479492188	374.0586547851562	733.0980834960938	906.6939086914062	425.6996459960938	686.3700561523438	1435.630493164062	927.5425415039062	632.9495849609375	1385.380615234375	989.6720581054688	637.54833984375	1130.437744140625	1085.151245117188	611.9829711914062	1075.847778320312	1049.320556640625	852.6231689453125	1137.671875	1005.790100097656	849.381591796875	1072.305541992188	1064.5068359375	692.240234375	1105.437377929688	1084.539916992188	1001.226989746094	1082.897705078125	988.9957275390625	952.2870483398438	1117.3388671875	1006.327758789062	936.9326171875	1057.222534179688	1050.850219726562	715.9413452148438	1651.752319335938	844.3408203125	907.4154052734375	1671.321655273438	769.7825927734375	844.0165405273438	1687.846557617188	882.8938598632812	788.3579711914062	1631.383666992188	682.8499755859375	935.7735595703125	856.0733642578125	693.2291870117188	630.4942016601562	889.9356689453125	950.0336303710938	753.1832275390625	924.6341552734375	974.698974609375	945.0056762695312	912.384521484375	809.7410888671875	1103.885498046875	499.2277221679688	830.3502807617188	1062.837768554688	636.0009765625	783.0936279296875	1230.969116210938	96.06938171386719	916.6474609375	1173.911254882812	369.8869934082031	850.7431640625	1364.124633789062	139.4969177246094	1086.903198242188	1294.161376953125	139.9137115478516	1075.539428710938	1354.091674804688	89.65690612792969	996.06689453125	1159.2470703125	112.6198577880859	924.9451904296875	610.3112182617188	494.4164428710938	940.8978881835938	642.9234008789062	752.2655639648438	984.5595703125	352.4884948730469	200.67724609375	723.7156982421875	523.4169311523438	384.3626098632812	888.2095947265625	501.209228515625	68.33898162841797	809.6671142578125	493.2409057617188	105.7716293334961	748.0596313476562	406.3368835449219	115.9859390258789	808.1621704101562	349.0720825195312	239.5663146972656	652.7850952148438	757.8143920898438	951.4412841796875	669.2521362304688	nan	nan	nan	
317	3.16	682.6487426757812	967.3053588867188	773.4981079101562	717.2418823242188	1056.635620117188	747.8409423828125	941.353515625	1275.009155273438	880.4345703125	700.316162109375	1178.908935546875	738.99658203125	719.181640625	1445.774536132812	776.9960327148438	901.0552978515625	1382.34423828125	846.629638671875	631.73876953125	1324.312377929688	827.978759765625	732.7064208984375	1400.602416992188	695.270263671875	848.5930786132812	1443.168701171875	659.6796875	834.767333984375	1390.5615234375	537.76611328125	769.9840087890625	1215.17822265625	428.0369567871094	682.8878173828125	1219.062866210938	485.1741638183594	777.7115478515625	992.183349609375	435.9986267089844	737.4374389648438	992.2919311523438	372.872314453125	766.6421508789062	1128.322509765625	397.5487060546875	705.5388793945312	839.4555053710938	461.8405456542969	707.0257568359375	906.9603271484375	382.5646362304688	757.0855712890625	899.50048828125	434.840087890625	705.686279296875	1429.042358398438	936.09716796875	650.8713989257812	1379.410766601562	997.3258056640625	650.8927612304688	1125.616577148438	1094.617797851562	625.7342529296875	1070.8984375	1058.316528320312	867.1170654296875	1132.034057617188	1018.970092773438	862.983154296875	1066.613037109375	1077.736694335938	705.4803466796875	1100.263916015625	1094.7666015625	1016.298522949219	1078.115234375	1004.873840332031	966.8519897460938	1112.365600585938	1021.625427246094	950.89892578125	1051.903564453125	1065.760131835938	734.4036254882812	1644.456176757812	851.8807983398438	925.7858276367188	1664.988891601562	777.2462158203125	862.307861328125	1681.790649414062	890.321044921875	807.00048828125	1623.65966796875	690.6071166992188	958.58984375	847.6188354492188	706.3007202148438	649.9151000976562	884.6461791992188	959.989501953125	772.5952758789062	919.1683349609375	985.7159423828125	966.19091796875	904.7664184570312	822.7191772460938	1127.239868164062	493.2137451171875	845.5736083984375	1086.364990234375	630.6693725585938	799.3607177734375	1245.826538085938	88.19784545898438	925.3539428710938	1194.804931640625	362.1873779296875	865.0133666992188	1376.081787109375	122.8088760375977	1100.56787109375	1306.39990234375	125.8285751342773	1086.813232421875	1367.471313476562	78.13907623291016	1006.559204101562	1174.13330078125	105.4412994384766	933.0020141601562	627.1513061523438	489.8464660644531	953.7216796875	661.0703735351562	747.6705932617188	995.6583251953125	371.26953125	194.130859375	735.724609375	540.5380859375	379.8532104492188	900.8644409179688	520.21484375	64.83131408691406	824.3327026367188	512.4169921875	100.9877777099609	762.4456787109375	424.7329711914062	110.7120971679688	821.533447265625	368.747802734375	232.2106323242188	664.354736328125	780.40087890625	940.9326171875	679.5159912109375	nan	nan	nan	
